<svg width="800" height="800" viewBox="0 0 800 800" fill="none" xmlns="http://www.w3.org/2000/svg">
<path d="M709.784 97.136C611.352 137.904 189.288 312.728 72.672 360.376C-5.53602 390.896 40.248 419.512 40.248 419.512C40.248 419.512 107.008 442.4 164.24 459.568C221.464 476.736 251.984 457.664 251.984 457.664L520.944 276.448C616.32 211.592 593.432 265 570.536 287.896C520.944 337.496 438.92 415.696 370.248 478.648C339.728 505.352 354.984 528.24 368.344 539.688C417.936 581.656 553.376 667.496 561 673.216C601.296 701.744 680.56 742.808 692.616 656.048L740.304 356.568C755.568 255.472 770.824 162 772.728 135.296C778.456 70.432 709.784 97.136 709.784 97.136Z" fill="black"/>
</svg>
