<svg width="748" height="618" viewBox="0 0 748 618" fill="none" xmlns="http://www.w3.org/2000/svg">
<path d="M683.784 6.13601C585.352 46.904 163.288 221.728 46.672 269.376C-31.536 299.896 14.248 328.512 14.248 328.512C14.248 328.512 81.008 351.4 138.24 368.568C195.464 385.736 225.984 366.664 225.984 366.664L494.944 185.448C590.32 120.592 567.432 174 544.536 196.896C494.944 246.496 412.92 324.696 344.248 387.648C313.728 414.352 328.984 437.24 342.344 448.688C391.936 490.656 527.376 576.496 535 582.216C575.296 610.744 654.56 651.808 666.616 565.048L714.304 265.568C729.568 164.472 744.824 71 746.728 44.296C752.456 -20.568 683.784 6.13601 683.784 6.13601Z" fill="white"/>
</svg>
